<svg width="774" height="149" viewBox="0 0 774 149" fill="none" xmlns="http://www.w3.org/2000/svg">
<path d="M0.440001 121V1.71999H22.28V114.28L10.352 102.016H78.896V121H0.440001ZM90.7991 121V31.288H112.303V121H90.7991ZM90.4631 19.36V0.207993H112.807V19.36H90.4631ZM172.58 148.216C164.74 148.216 158.02 147.152 152.42 145.024C146.82 142.896 142.284 139.872 138.812 135.952C135.452 132.144 133.1 127.72 131.756 122.68L153.932 121.168C155.052 124.528 156.956 127.16 159.644 129.064C162.444 130.968 166.756 131.92 172.58 131.92C179.188 131.92 184.284 130.408 187.868 127.384C191.452 124.472 193.244 119.88 193.244 113.608V102.184C191.116 106.552 187.7 110.08 182.996 112.768C178.292 115.344 173.028 116.632 167.204 116.632C159.812 116.632 153.204 114.84 147.38 111.256C141.668 107.56 137.188 102.464 133.94 95.968C130.692 89.36 129.068 81.744 129.068 73.12C129.068 64.496 130.636 56.936 133.772 50.44C137.02 43.832 141.5 38.68 147.212 34.984C152.924 31.176 159.476 29.272 166.868 29.272C173.364 29.272 178.964 30.728 183.668 33.64C188.372 36.552 191.788 40.416 193.916 45.232V31.288H214.916V113.104C214.916 120.72 213.124 127.16 209.54 132.424C206.068 137.688 201.14 141.608 194.756 144.184C188.484 146.872 181.092 148.216 172.58 148.216ZM172.244 99.832C178.628 99.832 183.724 97.48 187.532 92.776C191.34 87.96 193.3 81.352 193.412 72.952C193.524 67.352 192.684 62.592 190.892 58.672C189.212 54.64 186.748 51.56 183.5 49.432C180.364 47.192 176.612 46.072 172.244 46.072C165.636 46.072 160.484 48.536 156.788 53.464C153.204 58.28 151.412 64.776 151.412 72.952C151.412 81.128 153.26 87.68 156.956 92.608C160.764 97.424 165.86 99.832 172.244 99.832ZM236.815 121V1.71999H258.319V51.784H255.631C256.527 46.632 258.319 42.432 261.007 39.184C263.695 35.824 266.999 33.36 270.919 31.792C274.839 30.112 279.151 29.272 283.855 29.272C290.463 29.272 296.007 30.728 300.487 33.64C305.079 36.44 308.495 40.416 310.735 45.568C313.087 50.72 314.263 56.656 314.263 63.376V121H292.759V68.584C292.759 61.304 291.527 55.872 289.063 52.288C286.599 48.592 282.735 46.744 277.471 46.744C271.647 46.744 266.999 48.648 263.527 52.456C260.055 56.264 258.319 61.808 258.319 69.088V121H236.815ZM367.431 121C358.471 121 351.863 118.928 347.607 114.784C343.463 110.64 341.391 104.144 341.391 95.296V10.288H362.895V93.28C362.895 97.424 363.791 100.336 365.583 102.016C367.375 103.584 370.175 104.368 373.983 104.368H386.583V121H367.431ZM327.279 47.92V31.288H386.583V47.92H327.279ZM404.034 121V1.71999H429.57L480.978 91.432V1.71999H502.818V121H476.61L425.874 33.808V121H404.034ZM565.361 123.016C556.513 123.016 548.729 121.112 542.009 117.304C535.401 113.384 530.249 107.896 526.553 100.84C522.969 93.784 521.177 85.552 521.177 76.144C521.177 66.624 522.969 58.392 526.553 51.448C530.249 44.392 535.401 38.96 542.009 35.152C548.729 31.232 556.513 29.272 565.361 29.272C574.209 29.272 581.937 31.232 588.545 35.152C595.153 38.96 600.249 44.392 603.833 51.448C607.529 58.392 609.377 66.624 609.377 76.144C609.377 85.552 607.529 93.784 603.833 100.84C600.249 107.896 595.153 113.384 588.545 117.304C581.937 121.112 574.209 123.016 565.361 123.016ZM565.361 105.544C572.305 105.544 577.625 102.968 581.321 97.816C585.129 92.664 587.033 85.44 587.033 76.144C587.033 66.96 585.129 59.792 581.321 54.64C577.625 49.376 572.305 46.744 565.361 46.744C558.417 46.744 553.041 49.376 549.233 54.64C545.425 59.792 543.521 66.96 543.521 76.144C543.521 85.44 545.425 92.664 549.233 97.816C553.041 102.968 558.417 105.544 565.361 105.544ZM658.806 121C649.846 121 643.238 118.928 638.982 114.784C634.838 110.64 632.766 104.144 632.766 95.296V10.288H654.27V93.28C654.27 97.424 655.166 100.336 656.958 102.016C658.75 103.584 661.55 104.368 665.358 104.368H677.958V121H658.806ZM618.654 47.92V31.288H677.958V47.92H618.654ZM731.06 123.016C722.1 123.016 714.316 121.112 707.708 117.304C701.1 113.384 696.004 107.896 692.42 100.84C688.836 93.784 687.044 85.552 687.044 76.144C687.044 66.736 688.836 58.56 692.42 51.616C696.004 44.56 701.044 39.072 707.54 35.152C714.148 31.232 721.82 29.272 730.556 29.272C739.068 29.272 746.516 31.176 752.9 34.984C759.396 38.792 764.38 44.28 767.852 51.448C771.324 58.616 773.06 67.24 773.06 77.32V82.192H709.388C709.836 90.032 711.964 95.968 715.772 100C719.692 103.92 724.844 105.88 731.228 105.88C736.044 105.88 740.02 104.816 743.156 102.688C746.404 100.448 748.644 97.368 749.876 93.448L771.884 94.792C769.42 103.528 764.548 110.416 757.268 115.456C750.1 120.496 741.364 123.016 731.06 123.016ZM709.388 67.744H750.884C750.436 60.464 748.364 55.088 744.668 51.616C740.972 48.032 736.268 46.24 730.556 46.24C724.844 46.24 720.084 48.088 716.276 51.784C712.58 55.48 710.284 60.8 709.388 67.744Z" fill="black"/>
</svg>
