<svg width="388" height="315" viewBox="0 0 388 315" fill="none" xmlns="http://www.w3.org/2000/svg">
<path d="M328.968 97.1512C339.705 86.3714 339.705 68.8939 328.969 58.1141C318.232 47.3343 300.823 47.3343 290.087 58.1141C284.793 63.4287 282.111 70.3669 282.036 77.3346C282.022 78.5962 282.12 81.1805 282.025 83.458C281.975 84.6412 281.873 85.8646 281.665 86.9792C281.463 88.0598 281.132 89.2115 280.522 90.1303C279.943 91.0024 278.77 91.2379 277.901 90.6566C277.032 90.0753 276.797 88.8967 277.376 88.0245C277.567 87.7369 277.782 87.1776 277.95 86.2799C278.111 85.4158 278.202 84.3923 278.248 83.2987C278.343 81.0229 278.238 78.932 278.255 77.2943C278.34 69.3744 281.393 61.4745 287.413 55.4301C299.627 43.168 319.429 43.168 331.642 55.4301C343.855 67.6922 343.855 87.5731 331.641 99.8352C325.621 105.879 317.753 108.945 309.865 109.031C309.002 109.04 307.948 108.927 306.925 108.804C305.855 108.676 304.77 108.53 303.684 108.431C302.6 108.332 301.615 108.29 300.793 108.351C299.933 108.416 299.476 108.58 299.279 108.712C298.41 109.293 297.237 109.057 296.658 108.185C296.079 107.313 296.313 106.135 297.182 105.553C298.186 104.881 299.421 104.647 300.512 104.565C301.642 104.481 302.869 104.545 304.027 104.651C305.183 104.756 306.371 104.915 307.373 105.035C308.424 105.161 309.243 105.241 309.825 105.235C316.764 105.16 323.675 102.466 328.968 97.1512Z" fill="black"/>
<path d="M341.435 42.9138L345.59 38.7415C346.329 38.0003 347.526 38.0003 348.264 38.7415C349.002 39.4827 349.002 40.6843 348.264 41.4255L344.108 45.5978C343.37 46.3388 342.173 46.3389 341.435 45.5978C340.697 44.8566 340.697 43.6549 341.435 42.9138Z" fill="black"/>
<path d="M367.705 75.735C368.749 75.7351 369.595 76.5845 369.595 77.6327C369.595 78.6807 368.749 79.5303 367.705 79.5303H359.393C358.349 79.5303 357.503 78.6807 357.503 77.6327C357.503 76.5845 358.349 75.7351 359.393 75.735H367.705Z" fill="black"/>
<path d="M348.264 113.84C349.002 114.581 349.002 115.783 348.264 116.524C347.526 117.265 346.329 117.265 345.591 116.524L341.435 112.352C340.697 111.61 340.697 110.409 341.435 109.668C342.173 108.926 343.37 108.926 344.108 109.668L348.264 113.84Z" fill="black"/>
<path d="M277.62 42.9138C278.358 43.6549 278.359 44.8566 277.62 45.5978C276.882 46.3389 275.685 46.3388 274.947 45.5978L270.791 41.4255C270.053 40.6843 270.053 39.4827 270.791 38.7415C271.53 38.0003 272.726 38.0003 273.465 38.7415L277.62 42.9138Z" fill="black"/>
<path d="M309.528 17.3252C310.572 17.3252 311.418 18.1747 311.418 19.2229V27.5674C311.418 28.6154 310.571 29.4651 309.528 29.4651C308.484 29.4651 307.638 28.6154 307.637 27.5674V19.2229C307.637 18.1747 308.484 17.3252 309.528 17.3252Z" fill="black"/>
<g filter="url(#filter0_if_14_31)">
<path d="M288.763 56.7976C300.238 45.2766 318.843 45.2766 330.318 56.7976C341.793 68.3185 341.793 86.9979 330.318 98.5188C324.661 104.198 317.272 107.078 309.857 107.158C306.969 107.189 304.059 107.754 301.656 109.362L300.4 110.202L277.126 86.8353L277.963 85.5745C279.565 83.1617 280.127 80.2393 280.158 77.3399C280.238 69.8961 283.106 62.4771 288.763 56.7976Z" fill="url(#paint0_linear_14_31)"/>
</g>
<g filter="url(#filter1_d_14_31)">
<path d="M23.8546 121.705C23.8546 121.705 13.2391 228.181 66.8344 266.523C90.969 283.789 133.88 281.25 168.07 278.958C209.806 276.162 257.396 287.767 257.396 287.767C257.396 287.767 287.691 243.932 279.403 194.762C276.082 175.059 261.987 143.791 229.174 121.705C114.475 44.5033 23.8546 121.705 23.8546 121.705Z" fill="url(#paint1_linear_14_31)" shape-rendering="crispEdges"/>
</g>
<path fill-rule="evenodd" clip-rule="evenodd" d="M235.631 150.999H252.15C248.766 154.483 246.707 156.609 246.707 156.609C243.341 159.979 241.659 161.663 239.796 163.112C238.141 164.398 236.382 165.545 234.537 166.538C232.462 167.656 230.245 168.513 225.814 170.226L225.8 170.232L210.52 176.139L215.436 161.371C217.113 156.336 217.954 153.81 219.12 151.457C220.156 149.368 221.384 147.379 222.788 145.516C224.367 143.42 226.242 141.543 229.99 137.79L229.997 137.784C229.997 137.784 232.019 135.765 235.631 132.158V150.999Z" fill="black"/>
<g filter="url(#filter2_d_14_31)">
<path d="M279.102 86.866C279.841 86.1281 281.037 86.1282 281.775 86.866L298.398 103.488C299.136 104.226 299.136 105.424 298.398 106.162C297.867 106.693 297.1 106.839 296.436 106.607C282.49 120.553 262.73 140.769 253.048 150.697C252.987 150.979 252.769 151.202 252.489 151.27C250.89 152.909 249.601 154.234 248.701 155.159C248.232 155.64 247.869 156.013 247.623 156.266C247.5 156.392 247.406 156.489 247.344 156.554C247.312 156.586 247.288 156.611 247.272 156.627C247.264 156.635 247.258 156.641 247.254 156.645C247.252 156.647 247.25 156.65 247.25 156.65L247.24 156.659C243.888 160.002 242.167 161.72 240.259 163.198C238.571 164.505 236.776 165.67 234.894 166.679C232.906 167.746 230.792 168.577 226.916 170.071C226.908 170.074 226.899 170.079 226.891 170.082C226.631 170.182 226.362 170.286 226.086 170.392C226.083 170.393 226.08 170.394 226.077 170.395L226.072 170.397L210.791 176.282C210.518 176.387 210.208 176.324 209.997 176.122C209.785 175.92 209.71 175.613 209.802 175.336L214.719 160.627C215.61 157.96 216.27 155.984 216.873 154.357C217.401 152.933 217.886 151.775 218.443 150.655C219.5 148.532 220.752 146.511 222.184 144.618C223.802 142.479 225.722 140.567 229.456 136.844L229.469 136.831C229.473 136.827 229.479 136.822 229.487 136.814C229.502 136.798 229.526 136.775 229.557 136.744C229.619 136.682 229.712 136.589 229.835 136.467C230.081 136.222 230.447 135.859 230.926 135.383C231.869 134.445 233.251 133.07 235.02 131.311C235.067 131.245 235.125 131.187 235.191 131.139C243.31 123.061 259.323 107.125 278.416 88.0859C278.462 88.0409 278.512 88.0034 278.564 87.9722C278.614 87.568 278.792 87.1763 279.102 86.866ZM231.992 136.455C231.514 136.931 231.148 137.294 230.901 137.539C230.779 137.661 230.685 137.754 230.623 137.816L230.531 137.908H230.529L230.53 137.909L230.524 137.915C226.762 141.667 224.931 143.495 223.39 145.531C222.015 147.349 220.812 149.29 219.797 151.33C219.726 151.472 219.656 151.616 219.587 151.761C219.449 152.05 219.315 152.345 219.182 152.649C218.958 153.164 218.738 153.707 218.51 154.301C218.438 154.49 218.364 154.684 218.29 154.884C218.17 155.209 218.049 155.549 217.922 155.908C217.428 157.299 216.867 158.97 216.153 161.106L211.745 174.293L225.528 168.986L225.529 168.986L225.543 168.98C229.989 167.268 232.156 166.432 234.179 165.347C235.987 164.377 237.711 163.258 239.333 162.002C241.149 160.596 242.794 158.957 246.172 155.589C246.176 155.585 246.181 155.579 246.188 155.572C246.204 155.556 246.228 155.532 246.26 155.499C246.322 155.435 246.416 155.338 246.539 155.211C246.785 154.959 247.148 154.585 247.617 154.104C248.311 153.391 249.237 152.441 250.357 151.292H235.63C235.213 151.292 234.874 150.953 234.874 150.536V133.588C233.676 134.78 232.708 135.743 231.992 136.455ZM279.101 89.5383C260.277 108.309 244.491 124.02 236.386 132.083V149.78H251.832C261.433 139.934 281.223 119.686 295.234 105.671L279.101 89.5383Z" fill="url(#paint2_linear_14_31)" fill-opacity="0.8" shape-rendering="crispEdges"/>
<path d="M279.101 89.5383C260.277 108.309 244.491 124.02 236.386 132.083V149.78H251.832C261.433 139.934 281.223 119.686 295.234 105.671L279.101 89.5383Z" fill="url(#paint3_linear_14_31)" fill-opacity="0.8" shape-rendering="crispEdges"/>
</g>
<path d="M150.064 189.208C151.73 187.541 154.433 187.541 156.1 189.208C157.766 190.875 157.766 193.577 156.1 195.243L133.857 217.484L156.023 239.65C157.689 241.317 157.689 244.019 156.023 245.686C154.356 247.352 151.654 247.352 149.988 245.686L124.815 220.514C123.247 218.946 123.154 216.461 124.535 214.784C124.644 214.644 124.763 214.509 124.892 214.38L150.064 189.208Z" fill="black"/>
<path d="M172.546 189.208C170.879 187.541 168.176 187.541 166.509 189.208C164.843 190.875 164.843 193.577 166.509 195.243L188.753 217.484L166.587 239.65C164.92 241.317 164.92 244.019 166.587 245.686C168.253 247.352 170.955 247.352 172.622 245.686L197.795 220.514C199.362 218.946 199.456 216.461 198.074 214.784C197.965 214.644 197.846 214.509 197.717 214.38L172.546 189.208Z" fill="black"/>
<rect x="50.2206" y="117.638" width="145.176" height="7.79873" rx="3.89936" fill="black"/>
<rect x="50.2206" y="139.835" width="73.1881" height="7.79873" rx="3.89936" fill="black"/>
<rect x="50.2206" y="162.031" width="109.782" height="7.79873" rx="3.89936" fill="black"/>
<defs>
<filter id="filter0_if_14_31" x="257.126" y="28.1569" width="101.798" height="102.046" filterUnits="userSpaceOnUse" color-interpolation-filters="sRGB">
<feFlood flood-opacity="0" result="BackgroundImageFix"/>
<feBlend mode="normal" in="SourceGraphic" in2="BackgroundImageFix" result="shape"/>
<feColorMatrix in="SourceAlpha" type="matrix" values="0 0 0 0 0 0 0 0 0 0 0 0 0 0 0 0 0 0 127 0" result="hardAlpha"/>
<feOffset dy="5"/>
<feGaussianBlur stdDeviation="8"/>
<feComposite in2="hardAlpha" operator="arithmetic" k2="-1" k3="1"/>
<feColorMatrix type="matrix" values="0 0 0 0 1 0 0 0 0 1 0 0 0 0 1 0 0 0 0.61 0"/>
<feBlend mode="overlay" in2="shape" result="effect1_innerShadow_14_31"/>
<feGaussianBlur stdDeviation="10" result="effect2_foregroundBlur_14_31"/>
</filter>
<filter id="filter1_d_14_31" x="0" y="68.3932" width="303.839" height="246.374" filterUnits="userSpaceOnUse" color-interpolation-filters="sRGB">
<feFlood flood-opacity="0" result="BackgroundImageFix"/>
<feColorMatrix in="SourceAlpha" type="matrix" values="0 0 0 0 0 0 0 0 0 0 0 0 0 0 0 0 0 0 127 0" result="hardAlpha"/>
<feOffset dy="4"/>
<feGaussianBlur stdDeviation="11.5"/>
<feComposite in2="hardAlpha" operator="out"/>
<feColorMatrix type="matrix" values="0 0 0 0 0 0 0 0 0 0 0 0 0 0 0 0 0 0 0.25 0"/>
<feBlend mode="normal" in2="BackgroundImageFix" result="effect1_dropShadow_14_31"/>
<feBlend mode="normal" in="SourceGraphic" in2="effect1_dropShadow_14_31" result="shape"/>
</filter>
<filter id="filter2_d_14_31" x="186.763" y="67.3126" width="135.188" height="136.019" filterUnits="userSpaceOnUse" color-interpolation-filters="sRGB">
<feFlood flood-opacity="0" result="BackgroundImageFix"/>
<feColorMatrix in="SourceAlpha" type="matrix" values="0 0 0 0 0 0 0 0 0 0 0 0 0 0 0 0 0 0 127 0" result="hardAlpha"/>
<feOffset dy="4"/>
<feGaussianBlur stdDeviation="11.5"/>
<feComposite in2="hardAlpha" operator="out"/>
<feColorMatrix type="matrix" values="0 0 0 0 0 0 0 0 0 0 0 0 0 0 0 0 0 0 0.25 0"/>
<feBlend mode="normal" in2="BackgroundImageFix" result="effect1_dropShadow_14_31"/>
<feBlend mode="normal" in="SourceGraphic" in2="effect1_dropShadow_14_31" result="shape"/>
</filter>
<linearGradient id="paint0_linear_14_31" x1="288.021" y1="85.1084" x2="334.771" y2="83.6302" gradientUnits="userSpaceOnUse">
<stop stop-color="#E07512"/>
<stop offset="1" stop-color="#F5C20B"/>
</linearGradient>
<linearGradient id="paint1_linear_14_31" x1="23" y1="128.224" x2="253.241" y2="287.767" gradientUnits="userSpaceOnUse">
<stop stop-color="#89D67F" stop-opacity="0.7"/>
<stop offset="0.326923" stop-color="#89D67F"/>
<stop offset="0.528846" stop-color="#67D559"/>
<stop offset="0.822115" stop-color="#3BD427"/>
<stop offset="1" stop-color="#19D200"/>
</linearGradient>
<linearGradient id="paint2_linear_14_31" x1="254.357" y1="86.3126" x2="254.357" y2="176.332" gradientUnits="userSpaceOnUse">
<stop stop-color="#F0A51B"/>
<stop offset="1" stop-color="#793A2A"/>
</linearGradient>
<linearGradient id="paint3_linear_14_31" x1="254.357" y1="86.3126" x2="254.357" y2="176.332" gradientUnits="userSpaceOnUse">
<stop stop-color="#F0A51B"/>
<stop offset="1" stop-color="#793A2A"/>
</linearGradient>
</defs>
</svg>
